<svg width="24" height="24" viewBox="0 0 24 24" fill="none" xmlns="http://www.w3.org/2000/svg">
<path fill-rule="evenodd" clip-rule="evenodd" d="M19 2H5C3.34315 2 2 3.34315 2 5V19C2 20.6569 3.34315 22 5 22H19C20.6569 22 22 20.6569 22 19V5C22 3.34315 20.6569 2 19 2ZM4 5C4 4.44772 4.44772 4 5 4H19C19.5523 4 20 4.44772 20 5V19C20 19.5523 19.5523 20 19 20H5C4.44772 20 4 19.5523 4 19V5ZM16.5 6C15.6716 6 15 6.67157 15 7.5V16.5C15 17.3284 15.6716 18 16.5 18C17.3284 18 18 17.3284 18 16.5V7.5C18 6.67157 17.3284 6 16.5 6ZM10.5 11.5C10.5 10.6716 11.1716 10 12 10C12.8284 10 13.5 10.6716 13.5 11.5V16.5C13.5 17.3284 12.8284 18 12 18C11.1716 18 10.5 17.3284 10.5 16.5V11.5ZM7.5 14C6.67157 14 6 14.6716 6 15.5V16.5C6 17.3284 6.67157 18 7.5 18C8.32843 18 9 17.3284 9 16.5V15.5C9 14.6716 8.32843 14 7.5 14Z" fill="#D2F159"/>
</svg>
