<svg width="25" height="24" viewBox="0 0 25 24" fill="none" xmlns="http://www.w3.org/2000/svg">
<path fill-rule="evenodd" clip-rule="evenodd" d="M19.875 2H5.875C4.21815 2 2.875 3.34315 2.875 5V19C2.875 20.6569 4.21815 22 5.875 22H19.875C21.5319 22 22.875 20.6569 22.875 19V5C22.875 3.34315 21.5319 2 19.875 2ZM4.875 5C4.875 4.44772 5.32272 4 5.875 4H19.7115L14.035 13.5365L10.6104 9.82215C10.3902 9.58327 10.0676 9.46628 9.74539 9.50846C9.42322 9.55064 9.14162 9.74672 8.99028 10.0343L4.875 17.8533V5ZM6.00525 20H19.875C20.4273 20 20.875 19.5523 20.875 19V5.95544L15.0678 15.7115C14.9064 15.9828 14.6263 16.1618 14.3123 16.1946C13.9983 16.2274 13.6873 16.1099 13.4733 15.8778L10.1003 12.2194L6.00525 20Z" fill="white"/>
</svg>
