<svg width="30" height="30" viewBox="0 0 30 30" fill="none" xmlns="http://www.w3.org/2000/svg">
<path d="M21.8327 3.3323C21.8421 3.28621 21.9079 3.28621 21.9174 3.3323C22.4063 5.72442 24.2757 7.59384 26.6678 8.08277C26.7139 8.09219 26.7139 8.15804 26.6678 8.16746C24.2757 8.65639 22.4063 10.5258 21.9174 12.9179C21.9079 12.964 21.8421 12.964 21.8327 12.9179C21.3437 10.5258 19.4743 8.65639 17.0822 8.16746C17.0361 8.15804 17.0361 8.09219 17.0822 8.08277C19.4743 7.59384 21.3437 5.72442 21.8327 3.3323Z" stroke="black" stroke-width="2.25"/>
<path d="M26.8753 15.0001C26.8753 21.5585 21.5587 26.8751 15.0003 26.8751C8.44195 26.8751 3.12534 21.5585 3.12534 15.0001C3.12534 8.44174 8.44195 3.12512 15.0003 3.12512" stroke="black" stroke-width="2.25" stroke-linecap="round"/>
<path d="M16.8753 16.25C16.8753 17.9759 15.4762 19.375 13.7503 19.375C12.0244 19.375 10.6253 17.9759 10.6253 16.25C10.6253 14.5241 12.0244 13.125 13.7503 13.125C15.4762 13.125 16.8753 14.5241 16.8753 16.25Z" stroke="black" stroke-width="2.25" stroke-linecap="round"/>
</svg>
