<svg width="25" height="24" viewBox="0 0 25 24" fill="none" xmlns="http://www.w3.org/2000/svg">
<path fill-rule="evenodd" clip-rule="evenodd" d="M22.4754 6.73574C22.4752 7.28802 22.0274 7.73559 21.4751 7.73541C20.9228 7.73523 20.4752 7.28738 20.4754 6.73509L20.4758 5.41916L13.2082 12.7058C12.836 13.0789 12.2382 13.0992 11.8416 12.7522L8.54567 9.86826L4.20684 14.2068C3.8163 14.5973 3.18313 14.5973 2.79262 14.2067C2.40211 13.8162 2.40214 13.183 2.79268 12.7925L7.79304 7.7925C8.16531 7.42026 8.76243 7.40039 9.15863 7.74706L12.4536 10.6302L19.0668 3.9997L17.501 3.9997C16.9488 3.9997 16.501 3.55198 16.501 2.9997C16.501 2.44741 16.9488 1.9997 17.501 1.99969H21.4766C21.7419 1.9997 21.9963 2.1051 22.1838 2.2927C22.3714 2.48031 22.4767 2.73475 22.4766 3.00002L22.4754 6.73574ZM17.5 12.9997C17.5 12.4474 17.9477 11.9997 18.5 11.9997H21.5C22.0523 11.9997 22.5 12.4474 22.5 12.9997C22.5 13.552 22.0523 13.9997 21.5 13.9997H18.5C17.9477 13.9997 17.5 13.552 17.5 12.9997ZM11 15.9997C10.4477 15.9997 10 16.4474 10 16.9997C10 17.552 10.4477 17.9997 11 17.9997H14C14.5523 17.9997 15 17.552 15 16.9997C15 16.4474 14.5523 15.9997 14 15.9997H11ZM2.5 20.9997C2.5 20.4474 2.94772 19.9997 3.5 19.9997H6.5C7.05228 19.9997 7.5 20.4474 7.5 20.9997C7.5 21.552 7.05228 21.9997 6.5 21.9997H3.5C2.94772 21.9997 2.5 21.552 2.5 20.9997ZM10 20.9997C10 20.4474 10.4477 19.9997 11 19.9997H14C14.5523 19.9997 15 20.4474 15 20.9997C15 21.552 14.5523 21.9997 14 21.9997H11C10.4477 21.9997 10 21.552 10 20.9997ZM17.5 20.9997C17.5 20.4474 17.9477 19.9997 18.5 19.9997H21.5C22.0523 19.9997 22.5 20.4474 22.5 20.9997C22.5 21.552 22.0523 21.9997 21.5 21.9997H18.5C17.9477 21.9997 17.5 21.552 17.5 20.9997ZM18.5 15.9997C17.9477 15.9997 17.5 16.4474 17.5 16.9997C17.5 17.552 17.9477 17.9997 18.5 17.9997H21.5C22.0523 17.9997 22.5 17.552 22.5 16.9997C22.5 16.4474 22.0523 15.9997 21.5 15.9997H18.5Z" fill="#D2F159"/>
</svg>
