<svg width="28" height="28" viewBox="0 0 28 28" fill="none" xmlns="http://www.w3.org/2000/svg">
<path d="M7.78168 16.3333H4.66668C3.38334 16.3333 2.33334 17.3833 2.33334 18.6666V24.4999C2.33334 25.1416 2.85834 25.6666 3.50001 25.6666H7.78168C8.42334 25.6666 8.94834 25.1416 8.94834 24.4999V17.4999C8.94834 16.8583 8.42334 16.3333 7.78168 16.3333Z" fill="#D2F159"/>
<path d="M15.5516 11.6667H12.4366C11.1532 11.6667 10.1032 12.7167 10.1032 14.0001V24.5001C10.1032 25.1417 10.6282 25.6667 11.2699 25.6667H16.7182C17.3599 25.6667 17.8849 25.1417 17.8849 24.5001V14.0001C17.8849 12.7167 16.8466 11.6667 15.5516 11.6667Z" fill="#D2F159"/>
<path d="M23.3334 19.8333H20.2184C19.5768 19.8333 19.0518 20.3583 19.0518 20.9999V24.4999C19.0518 25.1416 19.5768 25.6666 20.2184 25.6666H24.5001C25.1418 25.6666 25.6668 25.1416 25.6668 24.4999V22.1666C25.6668 20.8833 24.6168 19.8333 23.3334 19.8333Z" fill="#D2F159"/>
<path d="M17.5116 5.65823C17.8733 5.29656 18.0133 4.8649 17.8966 4.49156C17.7799 4.11823 17.4183 3.8499 16.9049 3.76823L15.7849 3.58156C15.7383 3.58156 15.6333 3.4999 15.6099 3.45323L14.9916 2.21656C14.5249 1.27156 13.4633 1.27156 12.9966 2.21656L12.3783 3.45323C12.3666 3.4999 12.2616 3.58156 12.2149 3.58156L11.0949 3.76823C10.5816 3.8499 10.2316 4.11823 10.1033 4.49156C9.98661 4.8649 10.1266 5.29656 10.4883 5.65823L11.3516 6.53323C11.3983 6.56823 11.4333 6.70823 11.4216 6.7549L11.1766 7.82823C10.9899 8.63323 11.2933 8.9949 11.4916 9.1349C11.6899 9.2749 12.1216 9.46156 12.8333 9.04156L13.8833 8.42323C13.9299 8.38823 14.0816 8.38823 14.1283 8.42323L15.1666 9.04156C15.4933 9.2399 15.7616 9.29823 15.9716 9.29823C16.2166 9.29823 16.3916 9.2049 16.4966 9.1349C16.6949 8.9949 16.9983 8.63323 16.8116 7.82823L16.5666 6.7549C16.5549 6.69656 16.5899 6.56823 16.6366 6.53323L17.5116 5.65823Z" fill="#D2F159"/>
</svg>
