<svg width="24" height="24" viewBox="0 0 24 24" fill="none" xmlns="http://www.w3.org/2000/svg">
<path fill-rule="evenodd" clip-rule="evenodd" d="M3.99976 4.45527C3.99976 4.18435 4.22325 3.96449 4.49976 3.96449H15.3366C15.1206 4.41111 14.9998 4.91073 14.9998 5.43808V19.0475L13.4292 17.7911C12.5553 17.092 11.2661 17.24 10.5799 18.1184L9.45909 19.5529L8.19458 18.0952C7.43224 17.2165 6.06662 17.1698 5.24398 17.9944L3.99976 19.2417V12.0482V4.45527ZM17.9998 1.99969V2.03452C18.1631 2.01157 18.33 1.99969 18.4998 1.99969C20.4328 1.99969 21.9998 3.53911 21.9998 5.43808V11.7361C21.9998 12.327 21.5121 12.806 20.9106 12.806H16.9998V20.9256C16.9998 21.8288 15.9324 22.3273 15.2193 21.7569L15.2193 21.7569L12.1664 19.3147L10.6693 21.2308C10.0881 21.9747 8.95691 22.0031 8.33778 21.2894L6.67238 19.3697L4.57106 21.4761L3.86883 20.8L4.57106 21.4761C3.63058 22.4188 1.99976 21.7646 1.99976 20.4446V12.0482V4.45527C1.99976 3.0985 3.11941 1.99969 4.49976 1.99969H17.9998ZM19.9998 5.43808V10.8413H16.9998V5.43808C16.9998 4.62424 17.6713 3.96449 18.4998 3.96449C19.3282 3.96449 19.9998 4.62424 19.9998 5.43808ZM6.99976 9.85886C6.44747 9.85886 5.99976 10.2987 5.99976 10.8413C5.99976 11.3838 6.44747 11.8236 6.99976 11.8236H11.9998C12.552 11.8236 12.9998 11.3838 12.9998 10.8413C12.9998 10.2987 12.552 9.85886 11.9998 9.85886H6.99976ZM5.99976 14.7708C5.99976 14.2283 6.44747 13.7884 6.99976 13.7884H11.9998C12.552 13.7884 12.9998 14.2283 12.9998 14.7708C12.9998 15.3134 12.552 15.7532 11.9998 15.7532H6.99976C6.44747 15.7532 5.99976 15.3134 5.99976 14.7708ZM6.99976 5.92928C6.44747 5.92928 5.99976 6.36911 5.99976 6.91167C5.99976 7.45423 6.44747 7.89407 6.99976 7.89407H11.9998C12.552 7.89407 12.9998 7.45423 12.9998 6.91167C12.9998 6.36911 12.552 5.92928 11.9998 5.92928H6.99976Z" fill="#D2F159"/>
</svg>
