<svg width="25" height="24" viewBox="0 0 25 24" fill="none" xmlns="http://www.w3.org/2000/svg">
<path d="M12.9678 1.5C14.4893 1.5 15.7234 2.73336 15.7236 4.25488V8.27734H19.7451C21.2666 8.27766 22.5 9.5107 22.5 11.0322V19.7451C22.4997 21.2664 21.2664 22.4997 19.7451 22.5H11.0322C9.5107 22.5 8.27766 21.2666 8.27734 19.7451V15.7236H4.25488C2.73336 15.7234 1.5 14.4893 1.5 12.9678V4.25488C1.50024 2.73351 2.73351 1.50024 4.25488 1.5H12.9678ZM15.7236 13.0078L15.7119 13.2334C15.703 13.3261 15.6877 13.4171 15.6699 13.5068C15.6641 13.5361 15.6561 13.5648 15.6494 13.5938C15.6353 13.6544 15.6205 13.7144 15.6025 13.7734C15.5966 13.7929 15.5894 13.8118 15.583 13.8311C15.5615 13.8964 15.5379 13.9604 15.5117 14.0234C15.5038 14.0425 15.4956 14.0613 15.4873 14.0801C15.4602 14.1415 15.4317 14.2018 15.4004 14.2607C15.3898 14.2806 15.3782 14.2998 15.3672 14.3193C15.3347 14.3769 15.301 14.4334 15.2646 14.4883C15.253 14.5058 15.2405 14.5228 15.2285 14.54C15.1893 14.5963 15.1486 14.6511 15.1055 14.7041C15.0958 14.7159 15.086 14.7276 15.0762 14.7393C15.0293 14.7949 14.9807 14.8487 14.9297 14.9004C14.9195 14.9107 14.9088 14.9205 14.8984 14.9307C14.8478 14.9805 14.7956 15.0284 14.7412 15.0742C14.7276 15.0857 14.714 15.0972 14.7002 15.1084C14.6517 15.1476 14.6018 15.1848 14.5508 15.2207C14.5243 15.2393 14.4978 15.2577 14.4707 15.2754C14.4276 15.3035 14.3835 15.3298 14.3389 15.3555C14.3105 15.3718 14.282 15.388 14.2529 15.4033C14.198 15.4324 14.142 15.459 14.085 15.4844C14.0643 15.4935 14.0443 15.504 14.0234 15.5127C13.9596 15.5392 13.8943 15.5622 13.8281 15.584C13.8098 15.59 13.7919 15.5969 13.7734 15.6025C13.7131 15.621 13.6518 15.6361 13.5898 15.6504C13.5625 15.6567 13.5355 15.6644 13.5078 15.6699C13.3332 15.7047 13.1531 15.7246 12.9688 15.7246L9.91602 15.7236V19.7461C9.91636 20.3151 10.3422 20.7854 10.8926 20.8545L11.0332 20.8633H19.7461C20.3625 20.8629 20.8629 20.3625 20.8633 19.7461V11.0332C20.8633 10.4165 20.3627 9.91639 19.7461 9.91602H15.7236V13.0078ZM4.25586 3.13867C3.63895 3.13867 3.13867 3.63895 3.13867 4.25586V12.9688C3.13878 13.5856 3.63901 14.0859 4.25586 14.0859H9.0752C9.0822 14.0858 9.08964 14.085 9.09668 14.085H12.9688C13.2057 14.0848 13.4251 14.0081 13.6064 13.8838C13.8631 13.7045 14.0413 13.4216 14.0781 13.0947L14.085 12.9688V9.09668C14.085 9.08964 14.0858 9.0822 14.0859 9.0752V4.25586C14.0859 3.63901 13.5856 3.13878 12.9688 3.13867H4.25586ZM5.39941 5.68945C5.6837 5.40516 6.1251 5.37373 6.44434 5.59473L6.55762 5.68945L9.98926 9.12109L9.99023 7.0752C9.99025 6.66392 10.2935 6.32314 10.6885 6.26465L10.8096 6.25586C11.2207 6.25601 11.5606 6.5592 11.6191 6.9541L11.6279 7.0752V11.0615C11.6386 11.2841 11.5596 11.5097 11.3896 11.6797C11.3789 11.6904 11.3656 11.698 11.3545 11.708C11.3365 11.7242 11.3182 11.7394 11.2988 11.7539C11.2799 11.7681 11.261 11.7816 11.2412 11.7939C11.2199 11.8073 11.1983 11.8197 11.1758 11.8311C11.1546 11.8416 11.1332 11.8507 11.1113 11.8594C11.0898 11.868 11.0683 11.876 11.0459 11.8828C11.0226 11.8898 10.9993 11.8955 10.9756 11.9004C10.9604 11.9035 10.9452 11.9098 10.9297 11.9121L10.8936 11.9141C10.8834 11.9151 10.8734 11.9163 10.8633 11.917L10.8096 11.9209H6.78223C6.3299 11.9208 5.96289 11.5539 5.96289 11.1016C5.96293 10.6904 6.26623 10.3496 6.66113 10.291L6.78223 10.2822L8.83301 10.2812L5.39941 6.84766C5.07982 6.52776 5.07968 6.00926 5.39941 5.68945Z" fill="white"/>
<path d="M15.7236 4.25488H15.8736V4.25486L15.7236 4.25488ZM15.7236 8.27734H15.5736V8.42734H15.7236V8.27734ZM19.7451 8.27734L19.7451 8.12734H19.7451V8.27734ZM22.5 19.7451L22.65 19.7451V19.7451H22.5ZM19.7451 22.5V22.65H19.7451L19.7451 22.5ZM8.27734 19.7451H8.12734V19.7451L8.27734 19.7451ZM8.27734 15.7236H8.42734V15.5736H8.27734V15.7236ZM4.25488 15.7236L4.25486 15.8736H4.25488V15.7236ZM1.5 4.25488L1.35 4.25486V4.25488H1.5ZM4.25488 1.5V1.35H4.25486L4.25488 1.5ZM15.7236 13.0078L15.8736 13.0156V13.0078H15.7236ZM15.7119 13.2334L15.8614 13.2477L15.8617 13.2412L15.7119 13.2334ZM15.6699 13.5068L15.8171 13.536L15.8171 13.536L15.6699 13.5068ZM15.6494 13.5938L15.5033 13.5598L15.5033 13.5598L15.6494 13.5938ZM15.6025 13.7734L15.746 13.8173L15.746 13.8172L15.6025 13.7734ZM15.583 13.8311L15.4406 13.784L15.4405 13.7841L15.583 13.8311ZM15.5117 14.0234L15.6502 14.081L15.6503 14.0809L15.5117 14.0234ZM15.4873 14.0801L15.3501 14.0194L15.3501 14.0195L15.4873 14.0801ZM15.4004 14.2607L15.5328 14.3313L15.5328 14.3312L15.4004 14.2607ZM15.3672 14.3193L15.2366 14.2456L15.2365 14.2456L15.3672 14.3193ZM15.2646 14.4883L15.3896 14.5712L15.3897 14.5712L15.2646 14.4883ZM15.2285 14.54L15.1054 14.4543L15.1054 14.4543L15.2285 14.54ZM15.1055 14.7041L14.9891 14.6094L14.9891 14.6095L15.1055 14.7041ZM15.0762 14.7393L15.1909 14.8358L15.191 14.8358L15.0762 14.7393ZM14.9297 14.9004L14.8229 14.7951L14.8228 14.7951L14.9297 14.9004ZM14.8984 14.9307L15.0036 15.0376L15.0036 15.0376L14.8984 14.9307ZM14.7412 15.0742L14.6446 14.9595L14.6445 14.9595L14.7412 15.0742ZM14.7002 15.1084L14.7946 15.225L14.7946 15.2249L14.7002 15.1084ZM14.5508 15.2207L14.4645 15.098L14.4644 15.0981L14.5508 15.2207ZM14.4707 15.2754L14.5526 15.401L14.5527 15.401L14.4707 15.2754ZM14.3389 15.3555L14.2641 15.2254L14.264 15.2255L14.3389 15.3555ZM14.2529 15.4033L14.323 15.5359L14.3231 15.5359L14.2529 15.4033ZM14.085 15.4844L14.024 15.3473L14.024 15.3473L14.085 15.4844ZM14.0234 15.5127L14.081 15.6512L14.081 15.6512L14.0234 15.5127ZM13.8281 15.584L13.7813 15.4415L13.7813 15.4415L13.8281 15.584ZM13.7734 15.6025L13.7296 15.4591L13.7296 15.4591L13.7734 15.6025ZM13.5898 15.6504L13.6236 15.7965L13.6236 15.7965L13.5898 15.6504ZM13.5078 15.6699L13.4786 15.5228L13.4785 15.5228L13.5078 15.6699ZM12.9688 15.7246L12.9687 15.8746H12.9688L12.9688 15.7246ZM9.91602 15.7236L9.91606 15.5736L9.76602 15.5736V15.7236H9.91602ZM9.91602 19.7461H9.76602V19.7462L9.91602 19.7461ZM10.8926 20.8545L10.8739 21.0036L10.8832 21.0042L10.8926 20.8545ZM11.0332 20.8633L11.0238 21.0133H11.0332V20.8633ZM19.7461 20.8633V21.0133H19.7462L19.7461 20.8633ZM20.8633 19.7461L21.0133 19.7462V19.7461H20.8633ZM19.7461 9.91602L19.7462 9.76602H19.7461V9.91602ZM15.7236 9.91602V9.76602H15.5736V9.91602H15.7236ZM3.13867 12.9688H2.98867V12.9688L3.13867 12.9688ZM9.0752 14.0859V14.236L9.07894 14.2359L9.0752 14.0859ZM9.09668 14.085L9.09665 14.235H9.09668V14.085ZM12.9688 14.085V14.235H12.9689L12.9688 14.085ZM13.6064 13.8838L13.6912 14.0075L13.6923 14.0068L13.6064 13.8838ZM14.0781 13.0947L14.2274 13.1115L14.2279 13.1029L14.0781 13.0947ZM14.085 12.9688L14.235 12.9769V12.9688H14.085ZM14.085 9.09668H14.235V9.09665L14.085 9.09668ZM14.0859 9.0752L14.2359 9.07895V9.0752H14.0859ZM12.9688 3.13867L12.9688 2.98867H12.9688V3.13867ZM5.39941 5.68945L5.29335 5.58339L5.29334 5.5834L5.39941 5.68945ZM6.44434 5.59473L6.54096 5.47918L6.52971 5.4714L6.44434 5.59473ZM6.55762 5.68945L6.6641 5.58297L6.65384 5.57438L6.55762 5.68945ZM9.98926 9.12109L9.88319 9.22716L10.1391 9.48305L10.1393 9.12117L9.98926 9.12109ZM9.99023 7.0752L10.1402 7.07527V7.0752L9.99023 7.0752ZM10.6885 6.26465L10.6776 6.11463L10.6665 6.11627L10.6885 6.26465ZM10.8096 6.25586L10.8096 6.10546L10.7987 6.10625L10.8096 6.25586ZM11.6191 6.9541L11.7692 6.94321L11.7675 6.93212L11.6191 6.9541ZM11.6279 7.0752H11.7783L11.7775 7.06434L11.6279 7.0752ZM11.6279 11.0615H11.4778L11.4781 11.0687L11.6279 11.0615ZM11.3896 11.6797L11.4957 11.7858L11.4957 11.7858L11.3896 11.6797ZM11.3545 11.708L11.2543 11.5963L11.2541 11.5965L11.3545 11.708ZM11.2988 11.7539L11.3888 11.874L11.389 11.8738L11.2988 11.7539ZM11.2412 11.7939L11.162 11.6666L11.1617 11.6668L11.2412 11.7939ZM11.1758 11.8311L11.2428 11.9652L11.2433 11.965L11.1758 11.8311ZM11.1113 11.8594L11.0562 11.7199L11.0557 11.7201L11.1113 11.8594ZM11.0459 11.8828L11.0889 12.0265L11.0894 12.0264L11.0459 11.8828ZM10.9756 11.9004L10.9455 11.7534L10.9451 11.7535L10.9756 11.9004ZM10.9297 11.9121L10.9378 12.0625L10.9517 12.0605L10.9297 11.9121ZM10.8936 11.9141L10.8854 11.7641L10.8785 11.7648L10.8936 11.9141ZM10.8633 11.917L10.8537 11.7673L10.8524 11.7674L10.8633 11.917ZM10.8096 11.9209V12.0713L10.8205 12.0705L10.8096 11.9209ZM6.78223 11.9209L6.7822 12.0709H6.78223V11.9209ZM5.96289 11.1016L5.81289 11.1015V11.1016H5.96289ZM6.66113 10.291L6.65024 10.141L6.63913 10.1426L6.66113 10.291ZM6.78223 10.2822L6.78216 10.1318L6.77137 10.1326L6.78223 10.2822ZM8.83301 10.2812L8.83308 10.4312L9.19497 10.4311L8.93907 10.1752L8.83301 10.2812ZM5.39941 6.84766L5.2933 6.95367L5.29335 6.95372L5.39941 6.84766ZM12.9678 1.5V1.65C14.4066 1.65 15.5734 2.81626 15.5736 4.25491L15.7236 4.25488L15.8736 4.25486C15.8734 2.65047 14.5721 1.35 12.9678 1.35V1.5ZM15.7236 4.25488H15.5736V8.27734H15.7236H15.8736V4.25488H15.7236ZM15.7236 8.27734V8.42734H19.7451V8.27734V8.12734H15.7236V8.27734ZM19.7451 8.27734L19.7451 8.42734C21.1838 8.42764 22.35 9.59357 22.35 11.0322H22.5H22.65C22.65 9.42782 21.3494 8.12767 19.7451 8.12734L19.7451 8.27734ZM22.5 11.0322H22.35V19.7451H22.5H22.65V11.0322H22.5ZM22.5 19.7451L22.35 19.7451C22.3497 21.1835 21.1835 22.3497 19.7451 22.35L19.7451 22.5L19.7451 22.65C21.3492 22.6497 22.6497 21.3492 22.65 19.7451L22.5 19.7451ZM19.7451 22.5V22.35H11.0322V22.5V22.65H19.7451V22.5ZM11.0322 22.5V22.35C9.59357 22.35 8.42764 21.1838 8.42734 19.7451L8.27734 19.7451L8.12734 19.7451C8.12767 21.3494 9.42782 22.65 11.0322 22.65V22.5ZM8.27734 19.7451H8.42734V15.7236H8.27734H8.12734V19.7451H8.27734ZM8.27734 15.7236V15.5736H4.25488V15.7236V15.8736H8.27734V15.7236ZM4.25488 15.7236L4.25491 15.5736C2.81626 15.5734 1.65 14.4066 1.65 12.9678H1.5H1.35C1.35 14.5721 2.65047 15.8734 4.25486 15.8736L4.25488 15.7236ZM1.5 12.9678H1.65V4.25488H1.5H1.35V12.9678H1.5ZM1.5 4.25488L1.65 4.25491C1.65022 2.81636 2.81636 1.65022 4.25491 1.65L4.25488 1.5L4.25486 1.35C2.65066 1.35025 1.35025 2.65066 1.35 4.25486L1.5 4.25488ZM4.25488 1.5V1.65H12.9678V1.5V1.35H4.25488V1.5ZM15.7236 13.0078L15.5738 13L15.5621 13.2256L15.7119 13.2334L15.8617 13.2412L15.8734 13.0156L15.7236 13.0078ZM15.7119 13.2334L15.5626 13.2191C15.5544 13.305 15.54 13.3906 15.5228 13.4777L15.6699 13.5068L15.8171 13.536C15.8353 13.4437 15.8517 13.3473 15.8612 13.2477L15.7119 13.2334ZM15.6699 13.5068L15.5228 13.4776C15.5174 13.5047 15.5122 13.5216 15.5033 13.5598L15.6494 13.5938L15.7955 13.6277C15.8001 13.608 15.8108 13.5675 15.8171 13.536L15.6699 13.5068ZM15.6494 13.5938L15.5033 13.5598C15.4895 13.6195 15.4756 13.6756 15.4591 13.7297L15.6025 13.7734L15.746 13.8172C15.7655 13.7533 15.7812 13.6894 15.7955 13.6277L15.6494 13.5938ZM15.6025 13.7734L15.4591 13.7296C15.453 13.7496 15.4507 13.7533 15.4406 13.784L15.583 13.8311L15.7255 13.8781C15.728 13.8703 15.7402 13.8361 15.746 13.8173L15.6025 13.7734ZM15.583 13.8311L15.4405 13.7841C15.4201 13.8461 15.3978 13.9066 15.3732 13.9659L15.5117 14.0234L15.6503 14.0809C15.6779 14.0142 15.7029 13.9466 15.7255 13.878L15.583 13.8311ZM15.5117 14.0234L15.3732 13.9659C15.3659 13.9834 15.3582 14.0011 15.3501 14.0194L15.4873 14.0801L15.6245 14.1407C15.633 14.1215 15.6417 14.1015 15.6502 14.081L15.5117 14.0234ZM15.4873 14.0801L15.3501 14.0195C15.3239 14.0787 15.2971 14.1356 15.268 14.1903L15.4004 14.2607L15.5328 14.3312C15.5664 14.2681 15.5965 14.2042 15.6245 14.1407L15.4873 14.0801ZM15.4004 14.2607L15.268 14.1902C15.2583 14.2084 15.2508 14.2205 15.2366 14.2456L15.3672 14.3193L15.4978 14.3931C15.5057 14.3791 15.5213 14.3528 15.5328 14.3313L15.4004 14.2607ZM15.3672 14.3193L15.2365 14.2456C15.2052 14.3012 15.1734 14.3545 15.1396 14.4054L15.2646 14.4883L15.3897 14.5712C15.4287 14.5124 15.4642 14.4526 15.4978 14.393L15.3672 14.3193ZM15.2646 14.4883L15.1397 14.4054C15.129 14.4214 15.1206 14.4325 15.1054 14.4543L15.2285 14.54L15.3516 14.6258C15.3605 14.613 15.377 14.5903 15.3896 14.5712L15.2646 14.4883ZM15.2285 14.54L15.1054 14.4543C15.068 14.508 15.0295 14.5598 14.9891 14.6094L15.1055 14.7041L15.2218 14.7988C15.2677 14.7423 15.3107 14.6845 15.3516 14.6258L15.2285 14.54ZM15.1055 14.7041L14.9891 14.6095C14.9804 14.6201 14.9716 14.6305 14.9614 14.6427L15.0762 14.7393L15.191 14.8358C15.2004 14.8246 15.2112 14.8118 15.2218 14.7987L15.1055 14.7041ZM15.0762 14.7393L14.9614 14.6427C14.9169 14.6956 14.8709 14.7464 14.8229 14.7951L14.9297 14.9004L15.0365 15.0057C15.0905 14.9509 15.1418 14.8942 15.1909 14.8358L15.0762 14.7393ZM14.9297 14.9004L14.8228 14.7951C14.8116 14.8065 14.8113 14.806 14.7932 14.8237L14.8984 14.9307L15.0036 15.0376C15.0063 15.035 15.0274 15.015 15.0365 15.0057L14.9297 14.9004ZM14.8984 14.9307L14.7933 14.8237C14.745 14.8712 14.6957 14.9165 14.6446 14.9595L14.7412 15.0742L14.8378 15.189C14.8955 15.1404 14.9505 15.0898 15.0036 15.0376L14.8984 14.9307ZM14.7412 15.0742L14.6445 14.9595C14.6304 14.9714 14.6182 14.9818 14.6058 14.9919L14.7002 15.1084L14.7946 15.2249C14.8099 15.2126 14.8248 15.2 14.8379 15.1889L14.7412 15.0742ZM14.7002 15.1084L14.6058 14.9918C14.5605 15.0285 14.5134 15.0636 14.4645 15.098L14.5508 15.2207L14.6371 15.3434C14.6903 15.3059 14.743 15.2667 14.7946 15.225L14.7002 15.1084ZM14.5508 15.2207L14.4644 15.0981C14.4385 15.1163 14.4136 15.1335 14.3887 15.1498L14.4707 15.2754L14.5527 15.401C14.582 15.3819 14.6102 15.3623 14.6371 15.3434L14.5508 15.2207ZM14.4707 15.2754L14.3888 15.1497C14.3489 15.1757 14.3075 15.2005 14.2641 15.2254L14.3389 15.3555L14.4137 15.4855C14.4596 15.4591 14.5063 15.4312 14.5526 15.401L14.4707 15.2754ZM14.3389 15.3555L14.264 15.2255C14.2361 15.2416 14.2094 15.2566 14.1828 15.2707L14.2529 15.4033L14.3231 15.5359C14.3545 15.5193 14.3848 15.5021 14.4137 15.4855L14.3389 15.3555ZM14.2529 15.4033L14.1828 15.2707C14.1316 15.2978 14.0787 15.323 14.024 15.3473L14.085 15.4844L14.1459 15.6214C14.2052 15.5951 14.2644 15.5669 14.323 15.5359L14.2529 15.4033ZM14.085 15.4844L14.024 15.3473C13.9869 15.3638 13.9894 15.3644 13.9659 15.3742L14.0234 15.5127L14.081 15.6512C14.0992 15.6436 14.1418 15.6233 14.1459 15.6214L14.085 15.4844ZM14.0234 15.5127L13.9659 15.3742C13.9069 15.3987 13.8456 15.4203 13.7813 15.4415L13.8281 15.584L13.875 15.7265C13.943 15.7041 14.0122 15.6798 14.081 15.6512L14.0234 15.5127ZM13.8281 15.584L13.7813 15.4415C13.7502 15.4517 13.7495 15.453 13.7296 15.4591L13.7734 15.6025L13.8173 15.746C13.8343 15.7408 13.8695 15.7283 13.875 15.7265L13.8281 15.584ZM13.7734 15.6025L13.7296 15.4591C13.6743 15.476 13.6169 15.4902 13.5561 15.5042L13.5898 15.6504L13.6236 15.7965C13.6867 15.782 13.752 15.7659 13.8173 15.746L13.7734 15.6025ZM13.5898 15.6504L13.5561 15.5042C13.5168 15.5133 13.5052 15.5175 13.4786 15.5228L13.5078 15.6699L13.5371 15.817C13.5657 15.8113 13.6082 15.8001 13.6236 15.7965L13.5898 15.6504ZM13.5078 15.6699L13.4785 15.5228C13.3125 15.5558 13.1423 15.5746 12.9687 15.5746L12.9688 15.7246L12.9688 15.8746C13.1639 15.8746 13.3539 15.8535 13.5371 15.817L13.5078 15.6699ZM12.9688 15.7246L12.9688 15.5746L9.91606 15.5736L9.91602 15.7236L9.91597 15.8736L12.9687 15.8746L12.9688 15.7246ZM9.91602 15.7236H9.76602V19.7461H9.91602H10.066V15.7236H9.91602ZM9.91602 19.7461L9.76602 19.7462C9.76641 20.3916 10.2493 20.925 10.8739 21.0033L10.8926 20.8545L10.9112 20.7057C10.4351 20.6459 10.0663 20.2386 10.066 19.746L9.91602 19.7461ZM10.8926 20.8545L10.8832 21.0042L11.0238 21.013L11.0332 20.8633L11.0426 20.7136L10.9019 20.7048L10.8926 20.8545ZM11.0332 20.8633V21.0133H19.7461V20.8633V20.7133H11.0332V20.8633ZM19.7461 20.8633L19.7462 21.0133C20.4453 21.0129 21.0129 20.4453 21.0133 19.7462L20.8633 19.7461L20.7133 19.746C20.713 20.2796 20.2796 20.713 19.746 20.7133L19.7461 20.8633ZM20.8633 19.7461H21.0133V11.0332H20.8633H20.7133V19.7461H20.8633ZM20.8633 11.0332H21.0133C21.0133 10.3336 20.4455 9.76645 19.7462 9.76602L19.7461 9.91602L19.746 10.066C20.2799 10.0663 20.7133 10.4995 20.7133 11.0332H20.8633ZM19.7461 9.91602V9.76602H15.7236V9.91602V10.066H19.7461V9.91602ZM15.7236 9.91602H15.5736V13.0078H15.7236H15.8736V9.91602H15.7236ZM4.25586 3.13867V2.98867C3.5561 2.98867 2.98867 3.5561 2.98867 4.25586H3.13867H3.28867C3.28867 3.72179 3.72179 3.28867 4.25586 3.28867V3.13867ZM3.13867 4.25586H2.98867V12.9688H3.13867H3.28867V4.25586H3.13867ZM3.13867 12.9688L2.98867 12.9688C2.9888 13.6684 3.55614 14.2359 4.25586 14.2359V14.0859V13.9359C3.72188 13.9359 3.28877 13.5027 3.28867 12.9687L3.13867 12.9688ZM4.25586 14.0859V14.2359H9.0752V14.0859V13.9359H4.25586V14.0859ZM9.0752 14.0859L9.07894 14.2359C9.08281 14.2358 9.08626 14.2356 9.08886 14.2355C9.09123 14.2353 9.09395 14.2352 9.09513 14.2351C9.09871 14.2349 9.09822 14.235 9.09665 14.235L9.09668 14.085L9.09671 13.935C9.0881 13.935 9.08036 13.9354 9.07671 13.9357C9.07428 13.9358 9.07338 13.9359 9.07217 13.9359C9.07119 13.936 9.07108 13.936 9.07145 13.936L9.0752 14.0859ZM9.09668 14.085V14.235H12.9688V14.085V13.935H9.09668V14.085ZM12.9688 14.085L12.9689 14.235C13.2387 14.2348 13.4872 14.1473 13.6912 14.0075L13.6064 13.8838L13.5216 13.7601C13.363 13.8688 13.1728 13.9348 12.9686 13.935L12.9688 14.085ZM13.6064 13.8838L13.6923 14.0068C13.9828 13.8039 14.1854 13.483 14.2272 13.1115L14.0781 13.0947L13.9291 13.0779C13.8973 13.3602 13.7434 13.6052 13.5206 13.7608L13.6064 13.8838ZM14.0781 13.0947L14.2279 13.1029L14.2347 12.9769L14.085 12.9688L13.9352 12.9606L13.9283 13.0866L14.0781 13.0947ZM14.085 12.9688H14.235V9.09668H14.085H13.935V12.9688H14.085ZM14.085 9.09668L14.235 9.09665C14.235 9.09822 14.2349 9.09871 14.2351 9.09513C14.2352 9.09395 14.2353 9.09123 14.2355 9.08886C14.2356 9.08626 14.2358 9.08281 14.2359 9.07894L14.0859 9.0752L13.936 9.07145C13.936 9.07108 13.936 9.07119 13.9359 9.07217C13.9359 9.07338 13.9358 9.07428 13.9357 9.07671C13.9354 9.08036 13.935 9.0881 13.935 9.09671L14.085 9.09668ZM14.0859 9.0752H14.2359V4.25586H14.0859H13.9359V9.0752H14.0859ZM14.0859 4.25586H14.2359C14.2359 3.55614 13.6684 2.9888 12.9688 2.98867L12.9688 3.13867L12.9687 3.28867C13.5027 3.28877 13.9359 3.72188 13.9359 4.25586H14.0859ZM12.9688 3.13867V2.98867H4.25586V3.13867V3.28867H12.9688V3.13867ZM5.39941 5.68945L5.50548 5.79552C5.73754 5.56346 6.0982 5.53754 6.35896 5.71806L6.44434 5.59473L6.52971 5.4714C6.15201 5.20992 5.62986 5.24687 5.29335 5.58339L5.39941 5.68945ZM6.44434 5.59473L6.34811 5.7098L6.46139 5.80452L6.55762 5.68945L6.65384 5.57438L6.54056 5.47966L6.44434 5.59473ZM6.55762 5.68945L6.45155 5.79552L9.88319 9.22716L9.98926 9.12109L10.0953 9.01503L6.66368 5.58339L6.55762 5.68945ZM9.98926 9.12109L10.1393 9.12117L10.1402 7.07527L9.99023 7.0752L9.84023 7.07512L9.83926 9.12102L9.98926 9.12109ZM9.99023 7.0752L10.1402 7.0752C10.1402 6.73933 10.3879 6.46078 10.7104 6.41303L10.6885 6.26465L10.6665 6.11627C10.199 6.18549 9.84025 6.58851 9.84023 7.07519L9.99023 7.0752ZM10.6885 6.26465L10.6993 6.41425L10.8204 6.40547L10.8096 6.25586L10.7987 6.10625L10.6776 6.11504L10.6885 6.26465ZM10.8096 6.25586L10.8095 6.40586C11.1451 6.40598 11.423 6.6535 11.4708 6.97608L11.6191 6.9541L11.7675 6.93212C11.6983 6.4649 11.2963 6.10604 10.8096 6.10586L10.8096 6.25586ZM11.6191 6.9541L11.4695 6.96496L11.4783 7.08605L11.6279 7.0752L11.7775 7.06434L11.7687 6.94324L11.6191 6.9541ZM11.6279 7.0752H11.4779V11.0615H11.6279H11.7779V7.0752H11.6279ZM11.6279 11.0615L11.4781 11.0687C11.4868 11.251 11.4222 11.435 11.2836 11.5736L11.3896 11.6797L11.4957 11.7858C11.697 11.5845 11.7903 11.3171 11.7778 11.0544L11.6279 11.0615ZM11.3896 11.6797L11.2836 11.5736C11.2868 11.5704 11.2888 11.5692 11.2829 11.5736C11.281 11.5751 11.2761 11.5786 11.2719 11.5819C11.2672 11.5855 11.261 11.5904 11.2543 11.5963L11.3545 11.708L11.4546 11.8197C11.4537 11.8205 11.4528 11.8211 11.4616 11.8146C11.4678 11.81 11.4818 11.7997 11.4957 11.7858L11.3896 11.6797ZM11.3545 11.708L11.2541 11.5965C11.2393 11.6099 11.2243 11.6223 11.2087 11.634L11.2988 11.7539L11.389 11.8738C11.412 11.8565 11.4338 11.8384 11.4548 11.8195L11.3545 11.708ZM11.2988 11.7539L11.2089 11.6339C11.1914 11.647 11.1765 11.6576 11.162 11.6666L11.2412 11.7939L11.3204 11.9213C11.3456 11.9057 11.3684 11.8892 11.3888 11.874L11.2988 11.7539ZM11.2412 11.7939L11.1617 11.6668C11.1434 11.6782 11.1259 11.6882 11.1083 11.6971L11.1758 11.8311L11.2433 11.965C11.2707 11.9512 11.2964 11.9363 11.3208 11.9211L11.2412 11.7939ZM11.1758 11.8311L11.1087 11.6969C11.0929 11.7048 11.0758 11.7121 11.0562 11.7199L11.1113 11.8594L11.1665 11.9989C11.1905 11.9894 11.2163 11.9785 11.2428 11.9652L11.1758 11.8311ZM11.1113 11.8594L11.0557 11.7201C11.0359 11.728 11.0189 11.7343 11.0024 11.7392L11.0459 11.8828L11.0894 12.0264C11.1176 12.0178 11.1437 12.008 11.1669 11.9987L11.1113 11.8594ZM11.0459 11.8828L11.0029 11.7391C10.9843 11.7447 10.9653 11.7494 10.9455 11.7534L10.9756 11.9004L11.0057 12.0473C11.0333 12.0417 11.0609 12.0349 11.0889 12.0265L11.0459 11.8828ZM10.9756 11.9004L10.9451 11.7535C10.9367 11.7553 10.9293 11.7572 10.9237 11.7588C10.9186 11.7602 10.9128 11.762 10.9104 11.7627C10.9029 11.7649 10.9041 11.7643 10.9077 11.7637L10.9297 11.9121L10.9517 12.0605C10.9708 12.0577 10.9873 12.0528 10.9951 12.0505C11.006 12.0472 11.0061 12.0473 11.006 12.0473L10.9756 11.9004ZM10.9297 11.9121L10.9216 11.7623L10.8855 11.7643L10.8936 11.9141L10.9017 12.0638L10.9378 12.0619L10.9297 11.9121ZM10.8936 11.9141L10.8785 11.7648C10.8635 11.7663 10.8602 11.7669 10.8537 11.7673L10.8633 11.917L10.8728 12.0667C10.8866 12.0658 10.9034 12.0638 10.9086 12.0633L10.8936 11.9141ZM10.8633 11.917L10.8524 11.7674L10.7987 11.7713L10.8096 11.9209L10.8205 12.0705L10.8742 12.0666L10.8633 11.917ZM10.8096 11.9209V11.7709H6.78223V11.9209V12.0709H10.8096V11.9209ZM6.78223 11.9209L6.78226 11.7709C6.41272 11.7708 6.11289 11.471 6.11289 11.1016H5.96289H5.81289C5.81289 11.6368 6.24708 12.0708 6.7822 12.0709L6.78223 11.9209ZM5.96289 11.1016L6.11289 11.1016C6.11292 10.7658 6.36069 10.4872 6.68314 10.4394L6.66113 10.291L6.63913 10.1426C6.17176 10.212 5.81293 10.6149 5.81289 11.1015L5.96289 11.1016ZM6.66113 10.291L6.67199 10.4406L6.79309 10.4318L6.78223 10.2822L6.77137 10.1326L6.65027 10.1414L6.66113 10.291ZM6.78223 10.2822L6.7823 10.4322L8.83308 10.4312L8.83301 10.2812L8.83294 10.1313L6.78216 10.1322L6.78223 10.2822ZM8.83301 10.2812L8.93907 10.1752L5.50548 6.74159L5.39941 6.84766L5.29335 6.95372L8.72694 10.3873L8.83301 10.2812ZM5.39941 6.84766L5.50553 6.74164C5.24441 6.48027 5.24435 6.0567 5.50549 5.79551L5.39941 5.68945L5.29334 5.5834C4.915 5.96182 4.91523 6.57524 5.2933 6.95367L5.39941 6.84766Z" fill="white"/>
</svg>
