<svg width="25" height="24" viewBox="0 0 25 24" fill="none" xmlns="http://www.w3.org/2000/svg">
<path fill-rule="evenodd" clip-rule="evenodd" d="M12.0142 3.12584C12.3162 2.95805 12.6835 2.95805 12.9855 3.12584L21.9855 8.12584C22.3838 8.34714 22.5822 8.80974 22.4679 9.25084C22.3536 9.69195 21.9555 10 21.4998 10H20.4998V19H21.4998C22.0521 19 22.4998 19.4477 22.4998 20C22.4998 20.5523 22.0521 21 21.4998 21H3.49985C2.94757 21 2.49985 20.5523 2.49985 20C2.49985 19.4477 2.94757 19 3.49985 19H4.49985V10H3.49985C3.04417 10 2.64612 9.69195 2.53182 9.25084C2.41752 8.80974 2.61588 8.34714 3.01421 8.12584L12.0142 3.12584ZM6.49985 19H8.99985V10H6.49985V19ZM10.9998 19H13.9998V10H10.9998V19ZM15.9998 19H18.4998V10H15.9998V19ZM17.6407 8H14.9998H9.99985H7.35898L12.4998 5.14396L17.6407 8Z" fill="#D2F159"/>
</svg>
