<svg width="24" height="24" viewBox="0 0 24 24" fill="none" xmlns="http://www.w3.org/2000/svg">
<path fill-rule="evenodd" clip-rule="evenodd" d="M12.0001 4.30939L18.6604 8.15469V15.8453L12.0001 19.6906L5.33984 15.8453V8.15469L12.0001 4.30939ZM11.0001 2.57734C11.6189 2.22007 12.3813 2.22007 13.0001 2.57734L19.6604 6.42264C20.2792 6.7799 20.6604 7.44016 20.6604 8.15469V15.8453C20.6604 16.5598 20.2792 17.2201 19.6604 17.5773L13.0001 21.4226C12.3813 21.7799 11.6189 21.7799 11.0001 21.4226L4.33984 17.5773C3.72104 17.2201 3.33984 16.5598 3.33984 15.8453V8.15469C3.33984 7.44016 3.72104 6.7799 4.33984 6.42264L11.0001 2.57734ZM8 12C8 9.79085 9.79086 7.99998 12 7.99998C14.2091 7.99998 16 9.79085 16 12C16 14.2091 14.2091 16 12 16C9.79086 16 8 14.2091 8 12ZM12 9.99998C10.8954 9.99998 10 10.8954 10 12C10 13.1046 10.8954 14 12 14C13.1046 14 14 13.1046 14 12C14 10.8954 13.1046 9.99998 12 9.99998Z" fill="black"/>
</svg>
