<svg width="24" height="24" viewBox="0 0 24 24" fill="none" xmlns="http://www.w3.org/2000/svg">
<path d="M10 16H11.5" stroke="white" stroke-opacity="0.4" stroke-width="2" stroke-miterlimit="10" stroke-linecap="round" stroke-linejoin="round"/>
<path d="M14.5 16H18" stroke="white" stroke-opacity="0.4" stroke-width="2" stroke-miterlimit="10" stroke-linecap="round" stroke-linejoin="round"/>
<path d="M13.5 3C15.3556 3 16.8315 2.99826 17.9971 3.12988C19.1811 3.26364 20.1773 3.5463 21.0127 4.20606L21.1934 4.35547C21.3709 4.50859 21.5378 4.67317 21.6934 4.84766C22.4061 5.6471 22.7153 6.60861 22.8604 7.74609C23.0019 8.85598 23 10.2577 23 12C23 13.7423 23.0019 15.144 22.8604 16.2539C22.7153 17.3914 22.4061 18.3529 21.6934 19.1523C21.4858 19.3851 21.2583 19.6 21.0127 19.7939C20.1773 20.4537 19.1811 20.7364 17.9971 20.8701C16.8315 21.0017 15.3556 21 13.5 21H10.5C8.64442 21 7.16855 21.0017 6.00293 20.8701C4.81887 20.7364 3.82269 20.4537 2.98731 19.7939C2.74173 19.6 2.51417 19.3851 2.30664 19.1523C1.59391 18.3529 1.28472 17.3914 1.13965 16.2539C0.998115 15.144 1 13.7423 1 12C1 10.2577 0.998115 8.85598 1.13965 7.74609C1.28472 6.60861 1.5939 5.6471 2.30664 4.84766C2.51403 4.61504 2.74158 4.40013 2.98731 4.20606C3.82269 3.54631 4.81887 3.26364 6.00293 3.12988C7.16854 2.99826 8.64442 3 10.5 3H13.5ZM3.0127 10C3.00308 10.5823 3 11.2428 3 12C3 13.7952 3.00236 15.0469 3.12402 16.001C3.24213 16.9269 3.45902 17.4399 3.79883 17.8213C3.92802 17.9662 4.07184 18.1016 4.22754 18.2246C4.64674 18.5556 5.21818 18.7689 6.22656 18.8828C7.25384 18.9989 8.59724 19 10.5 19H13.5C15.4028 19 16.7462 18.9989 17.7734 18.8828C18.7819 18.7689 19.3533 18.5556 19.7725 18.2246C19.9282 18.1016 20.072 17.9662 20.2012 17.8213C20.541 17.4399 20.7579 16.9269 20.876 16.001C20.9976 15.0469 21 13.7952 21 12C21 11.2428 20.9969 10.5823 20.9873 10H3.0127ZM10.5 5C8.59724 5 7.25384 5.00115 6.22656 5.11719C5.21817 5.23114 4.64674 5.44445 4.22754 5.77539C4.072 5.89822 3.92815 6.03366 3.79883 6.17871C3.45903 6.56003 3.24213 7.07308 3.12402 7.99902V8H20.876V7.99902C20.7579 7.07308 20.541 6.56003 20.2012 6.17871C20.0718 6.03366 19.928 5.89822 19.7725 5.77539C19.3533 5.44445 18.7819 5.23114 17.7734 5.11719C16.7462 5.00115 15.4028 5 13.5 5H10.5Z" fill="white" fill-opacity="0.4"/>
</svg>
